<?xml version="1.0" encoding="UTF-8" standalone="no"?>
<!-- Generator: Adobe Illustrator 18.1.1, SVG Export Plug-In . SVG Version: 6.00 Build 0)  -->

<svg
   xmlns:dc="http://purl.org/dc/elements/1.1/"
   xmlns:cc="http://creativecommons.org/ns#"
   xmlns:rdf="http://www.w3.org/1999/02/22-rdf-syntax-ns#"
   xmlns:svg="http://www.w3.org/2000/svg"
   xmlns="http://www.w3.org/2000/svg"
   xmlns:sodipodi="http://sodipodi.sourceforge.net/DTD/sodipodi-0.dtd"
   xmlns:inkscape="http://www.inkscape.org/namespaces/inkscape"
   version="1.1"
   id="Capa_1"
   x="0px"
   y="0px"
   viewBox="0 0 27.34 27.34"
   style="enable-background:new 0 0 27.34 27.34;"
   xml:space="preserve"
   inkscape:version="0.91 r13725"
   sodipodi:docname="unknown-topic.svg"><metadata
     id="metadata49"><rdf:RDF><cc:Work
         rdf:about=""><dc:format>image/svg+xml</dc:format><dc:type
           rdf:resource="http://purl.org/dc/dcmitype/StillImage" /></cc:Work></rdf:RDF></metadata><defs
     id="defs47" /><sodipodi:namedview
     pagecolor="#ffffff"
     bordercolor="#666666"
     borderopacity="1"
     objecttolerance="10"
     gridtolerance="10"
     guidetolerance="10"
     inkscape:pageopacity="0"
     inkscape:pageshadow="2"
     inkscape:window-width="640"
     inkscape:window-height="480"
     id="namedview45"
     showgrid="false"
     inkscape:zoom="17.264082"
     inkscape:cx="14.320752"
     inkscape:cy="13.097119"
     inkscape:window-x="344"
     inkscape:window-y="145"
     inkscape:window-maximized="0"
     inkscape:current-layer="Capa_1" /><g
     id="g3"
     style="fill:#ffffff"><g
       id="g5"
       style="fill:#ffffff"><g
         id="g7"
         style="fill:#ffffff"><path
           style="fill:#ffffff"
           d="M13.672,1.578C6.134,1.578,0,5.987,0,11.407c0,3.645,2.734,6.926,7.167,8.643     c0.003,0.852-0.463,2.346-2.825,4.492c-0.24,0.218-0.299,0.572-0.143,0.856c0.125,0.229,0.363,0.364,0.615,0.364     c0.062,0,0.123-0.008,0.185-0.023c0.254-0.069,6.166-1.7,9.818-4.547c7.041-0.422,12.523-4.688,12.523-9.784     C27.342,5.987,21.21,1.578,13.672,1.578z M14.538,19.909c-0.15,0.007-0.296,0.062-0.414,0.156     c-2.024,1.636-4.959,2.893-7.058,3.657c1.385-1.84,1.542-3.258,1.361-4.208c-0.048-0.249-0.223-0.454-0.461-0.539     c-4.172-1.487-6.763-4.399-6.763-7.599c0-4.722,5.593-8.563,12.469-8.563c6.875,0,12.468,3.842,12.468,8.563     C26.14,15.849,21.044,19.597,14.538,19.909z"
           id="path9" /></g><g
         id="g11"
         style="fill:#ffffff"><path
           style="fill:#ffffff"
           d="M12.164,13.821l-0.017-0.437c-0.051-0.854,0.234-1.725,0.988-2.612     c0.536-0.652,0.972-1.205,0.972-1.758c0-0.587-0.385-0.988-1.223-1.005c-0.553,0-1.224,0.201-1.657,0.502l-0.57-1.826     c0.619-0.352,1.607-0.687,2.796-0.687c2.211,0,3.231,1.222,3.231,2.612c0,1.272-0.804,2.109-1.44,2.813     c-0.603,0.688-0.87,1.34-0.854,2.093v0.303L12.164,13.821L12.164,13.821z M11.729,16.148c0-0.903,0.62-1.523,1.49-1.523     c0.905,0,1.491,0.62,1.506,1.523c0,0.872-0.585,1.524-1.506,1.524C12.331,17.673,11.729,17.02,11.729,16.148z"
           id="path13" /></g></g></g><g
     id="g15" /><g
     id="g17" /><g
     id="g19" /><g
     id="g21" /><g
     id="g23" /><g
     id="g25" /><g
     id="g27" /><g
     id="g29" /><g
     id="g31" /><g
     id="g33" /><g
     id="g35" /><g
     id="g37" /><g
     id="g39" /><g
     id="g41" /><g
     id="g43" /></svg>